<svg width="150" height="150" viewBox="0 0 150 150" fill="none" xmlns="http://www.w3.org/2000/svg">
<circle cx="75" cy="75" r="75" fill="white"/>
<path d="M33.5498 115H24.499V112.724H25.3535V107.768H24.499V105.491H29.9336V107.768H29.0312V112.724H31.2803V111.199H33.5498V115ZM39.5996 113.305V112.095C39.2943 111.931 38.9707 111.849 38.6289 111.849C38.3281 111.849 38.0889 111.931 37.9111 112.095C37.7334 112.263 37.6445 112.478 37.6445 112.737C37.6445 113.006 37.7357 113.225 37.918 113.394C38.1048 113.567 38.319 113.653 38.5605 113.653C38.9889 113.653 39.3353 113.537 39.5996 113.305ZM37.0225 110.222L34.3291 109.948C34.6253 109.297 35.1038 108.839 35.7646 108.574C36.4163 108.31 37.3779 108.178 38.6494 108.178C39.1188 108.178 39.5381 108.194 39.9072 108.226C40.2809 108.253 40.6136 108.296 40.9053 108.355C41.5114 108.469 41.9603 108.645 42.252 108.882C42.5436 109.123 42.7464 109.383 42.8604 109.661C42.9788 109.948 43.0381 110.395 43.0381 111.001V112.915H43.8857V115H39.5996V114.549C39.0072 114.932 38.2142 115.123 37.2207 115.123C36.2865 115.123 35.5824 114.918 35.1084 114.508C34.6299 114.098 34.3906 113.612 34.3906 113.052C34.3906 112.432 34.6846 111.924 35.2725 111.527C35.8558 111.131 36.6169 110.933 37.5557 110.933C38.4124 110.933 39.0938 111.044 39.5996 111.268V111.069C39.5996 110.659 39.57 110.372 39.5107 110.208C39.4469 110.035 39.3057 109.887 39.0869 109.764C38.859 109.645 38.5947 109.586 38.2939 109.586C37.7425 109.586 37.3187 109.798 37.0225 110.222ZM50.0039 115H44.7539V112.915H45.6084V110.454H44.7539V108.369H49.0469V109.21C49.89 108.567 50.7946 108.246 51.7607 108.246C52.6084 108.246 53.2464 108.481 53.6748 108.95C54.0986 109.42 54.3105 110.174 54.3105 111.213V112.915H55.0967V115H50.8721V112.054C50.8721 111.411 50.8174 110.987 50.708 110.782C50.5895 110.582 50.3639 110.481 50.0312 110.481C49.7259 110.481 49.3978 110.598 49.0469 110.83V112.915H50.0039V115ZM61.9531 111.657C61.9531 111.243 61.8574 110.896 61.666 110.618C61.4746 110.345 61.1898 110.208 60.8115 110.208C60.0322 110.208 59.6426 110.712 59.6426 111.719C59.6426 112.133 59.7383 112.475 59.9297 112.744C60.1165 113.018 60.4014 113.154 60.7842 113.154C61.1305 113.154 61.4131 113.034 61.6318 112.792C61.846 112.55 61.9531 112.172 61.9531 111.657ZM66.2324 112.915V115H61.9326V114.556C61.2946 114.934 60.5563 115.123 59.7178 115.123C58.7835 115.123 57.9564 114.838 57.2363 114.269C56.5163 113.699 56.1562 112.883 56.1562 111.821C56.1562 110.677 56.4889 109.793 57.1543 109.169C57.8197 108.554 58.7106 108.246 59.8271 108.246C60.6475 108.246 61.3493 108.428 61.9326 108.793V107.576H61.085V105.491H65.3711V112.915H66.2324ZM71.9131 115H67.2168V112.915H67.9004V110.454H67.2168V108.369H71.3389V112.915H71.9131V115ZM67.6133 106.496C67.6133 106.136 67.7979 105.847 68.167 105.628C68.5316 105.409 68.9827 105.3 69.5205 105.3C70.0719 105.3 70.5163 105.414 70.8535 105.642C71.1862 105.874 71.3525 106.157 71.3525 106.489C71.3525 106.849 71.1794 107.134 70.833 107.344C70.4821 107.558 70.04 107.665 69.5068 107.665C68.9645 107.665 68.5133 107.567 68.1533 107.371C67.7933 107.18 67.6133 106.888 67.6133 106.496ZM78.1406 115H72.8906V112.915H73.7451V110.454H72.8906V108.369H77.1836V109.21C78.0267 108.567 78.9313 108.246 79.8975 108.246C80.7451 108.246 81.3831 108.481 81.8115 108.95C82.2354 109.42 82.4473 110.174 82.4473 111.213V112.915H83.2334V115H79.0088V112.054C79.0088 111.411 78.9541 110.987 78.8447 110.782C78.7262 110.582 78.5007 110.481 78.168 110.481C77.8626 110.481 77.5345 110.598 77.1836 110.83V112.915H78.1406V115ZM87.7178 111.726C87.7178 112.131 87.8203 112.468 88.0254 112.737C88.2305 113.011 88.5221 113.147 88.9004 113.147C89.3014 113.147 89.5999 113.008 89.7959 112.73C89.9919 112.462 90.0898 112.122 90.0898 111.712C90.0898 111.265 89.985 110.903 89.7754 110.625C89.5612 110.342 89.2741 110.201 88.9141 110.201C88.5267 110.201 88.2305 110.349 88.0254 110.646C87.8203 110.937 87.7178 111.297 87.7178 111.726ZM84.8125 117.454L85.7559 115.772C86.2891 115.996 87.0046 116.107 87.9023 116.107C88.4948 116.107 88.9574 116.023 89.29 115.854C89.6273 115.69 89.8438 115.497 89.9395 115.273C90.0306 115.05 90.0762 114.733 90.0762 114.323C89.388 114.67 88.6201 114.843 87.7725 114.843C86.7835 114.843 85.9495 114.56 85.2705 113.995C84.5824 113.435 84.2383 112.658 84.2383 111.664C84.2383 110.616 84.596 109.784 85.3115 109.169C86.0225 108.554 86.8838 108.246 87.8955 108.246C88.7249 108.246 89.4518 108.428 90.0762 108.793V108.369H94.3281V110.454H93.501V114.091C93.501 114.902 93.4281 115.526 93.2822 115.964C93.1318 116.401 92.863 116.775 92.4756 117.085C92.0882 117.409 91.6029 117.641 91.0195 117.782C90.4408 117.933 89.6729 118.008 88.7158 118.008C88.2874 118.008 87.9046 117.994 87.5674 117.967C87.2347 117.939 86.8519 117.894 86.4189 117.83C85.6807 117.712 85.1452 117.586 84.8125 117.454ZM99.9404 107.576V109.36H100.658C101.16 109.36 101.524 109.301 101.752 109.183C101.971 109.064 102.08 108.834 102.08 108.492C102.08 108.269 102.021 108.08 101.902 107.925C101.788 107.774 101.636 107.679 101.444 107.638C101.262 107.597 100.952 107.576 100.515 107.576H99.9404ZM100.897 115H95.3398V112.724H96.2627V107.768H95.3398V105.491H101.171C102.511 105.491 103.491 105.621 104.11 105.881C104.73 106.145 105.186 106.505 105.478 106.961C105.769 107.417 105.915 107.916 105.915 108.458C105.915 109.128 105.742 109.684 105.396 110.126C105.049 110.573 104.591 110.896 104.021 111.097C103.461 111.293 102.595 111.391 101.424 111.391H99.9404V112.724H100.897V115ZM112.047 115H106.701V112.915H107.604V110.454H106.701V108.369H110.816V110.03C110.971 109.616 111.211 109.258 111.534 108.957C111.844 108.661 112.159 108.467 112.478 108.376C112.783 108.289 113.232 108.246 113.824 108.246V111.165C113.747 111.16 113.651 111.158 113.537 111.158C112.835 111.158 112.313 111.229 111.972 111.37C111.616 111.516 111.375 111.707 111.247 111.944C111.115 112.19 111.047 112.514 111.042 112.915H112.047V115ZM117.919 111.664C117.919 112.721 118.297 113.25 119.054 113.25C119.856 113.25 120.257 112.717 120.257 111.65C120.257 111.163 120.159 110.785 119.963 110.516C119.762 110.247 119.48 110.112 119.115 110.112C118.755 110.112 118.466 110.244 118.247 110.509C118.028 110.773 117.919 111.158 117.919 111.664ZM114.439 111.65C114.439 110.675 114.85 109.853 115.67 109.183C116.49 108.513 117.598 108.178 118.992 108.178C120.396 108.178 121.537 108.501 122.417 109.148C123.297 109.796 123.736 110.639 123.736 111.678C123.736 112.68 123.317 113.517 122.479 114.187C121.64 114.856 120.533 115.191 119.156 115.191C117.671 115.191 116.513 114.856 115.684 114.187C114.854 113.521 114.439 112.676 114.439 111.65Z" fill="#2563EB"/>
<path d="M28.9375 96.25L16.4688 96.5625C14.4062 96.5625 13.375 95.8542 13.375 94.4375C13.375 93.7917 13.6458 93.2292 14.1875 92.75C14.75 92.2708 15.4792 91.7292 16.375 91.125C17.2708 90.5 18.0833 89.6875 18.8125 88.6875C19.5417 87.6667 20.3438 85.9583 21.2188 83.5625C22.1146 81.1458 22.8438 78.7917 23.4062 76.5C25.1979 69.2292 26.4792 64.5 27.25 62.3125C28.0417 60.1042 28.6354 58.5 29.0312 57.5C29.4479 56.4792 29.8958 55.5417 30.375 54.6875C30.875 53.8333 31.3542 53.0833 31.8125 52.4375C32.2708 51.7917 32.8125 51.2188 33.4375 50.7188C34.0625 50.1979 34.6562 49.7708 35.2188 49.4375C35.8021 49.0833 36.5104 48.7812 37.3438 48.5312C38.1771 48.2604 38.9792 48.0521 39.75 47.9062C40.5208 47.7604 41.4792 47.6458 42.625 47.5625C44.3542 47.4375 46.6562 47.375 49.5312 47.375C52.4062 47.375 54.5417 47.5104 55.9375 47.7812C57.3333 48.0521 58.0312 48.625 58.0312 49.5C58.0312 50.2083 57.2292 51.0521 55.625 52.0312C53.8333 53.1354 52.25 54.9271 50.875 57.4062C49.3958 60.1146 48.2396 62.6562 47.4062 65.0312C46.5729 67.3854 45.9167 69.2812 45.4375 70.7188C44.9583 72.1562 44.375 73.9271 43.6875 76.0312C43 78.1354 42.4167 79.8854 41.9375 81.2812C39.9792 86.8854 37.3021 90.4271 33.9062 91.9062C39.1562 91.6354 43.5 90.7083 46.9375 89.125C48.8125 88.2708 50.4167 87.4688 51.75 86.7188C53.1042 85.9688 54.6146 84.8542 56.2812 83.375C58.4688 81.4167 60.4167 79.5521 62.125 77.7812C63.8333 75.9896 64.7604 75.0208 64.9062 74.875C65.4479 74.3125 66.1042 74.0312 66.875 74.0312C67.6458 74.0312 68.2708 74.2188 68.75 74.5938C69.2292 74.9688 69.4688 75.4583 69.4688 76.0625C69.4688 78.4583 68.6979 82.1354 67.1562 87.0938C66.6146 88.8021 66.0729 90.1979 65.5312 91.2812C64.9896 92.3646 64.2917 93.3333 63.4375 94.1875C61.8125 95.8125 59.1979 96.625 55.5938 96.625L28.9375 96.25ZM107.344 61.6562C106.073 63.6979 103.99 69.3333 101.094 78.5625C101.781 78.6042 102.802 78.625 104.156 78.625C108.323 78.625 111.833 77.1979 114.688 74.3438C117.562 71.4896 119 67.7812 119 63.2188C119 56.5521 114.99 53.2188 106.969 53.2188C103.802 53.2188 100.74 53.4479 97.7812 53.9062C94.8438 54.3646 92.5208 54.8646 90.8125 55.4062C89.1042 55.9479 87.5312 56.4479 86.0938 56.9062C84.6562 57.3646 83.7083 57.5938 83.25 57.5938C82.2083 57.5938 81.6875 57.2188 81.6875 56.4688C81.6875 55.7188 82.3958 54.9583 83.8125 54.1875C85.25 53.3958 86.8854 52.6354 88.7188 51.9062C90.5521 51.1562 92.8229 50.375 95.5312 49.5625C101.677 47.6875 108.333 46.75 115.5 46.75C124.958 46.75 131.396 48.8542 134.812 53.0625C136.667 55.3333 137.594 58.0729 137.594 61.2812C137.594 67.3646 135.062 72.3854 130 76.3438C125.688 79.7188 120.083 81.8646 113.188 82.7812C111.167 83.0521 108.854 83.1875 106.25 83.1875C103.667 83.1875 101.521 83.0104 99.8125 82.6562C98.9375 85.4688 98.25 87.6146 97.75 89.0938C97.2708 90.5729 96.7292 91.7604 96.125 92.6562C95.5208 93.5521 94.875 94.2604 94.1875 94.7812C93.5208 95.3021 92.6667 95.6979 91.625 95.9688C89.9792 96.4062 87.7812 96.625 85.0312 96.625C82.3021 96.625 79.7083 96.3229 77.25 95.7188C74.7917 95.1146 72.8438 94.375 71.4062 93.5C69.9479 92.625 69.2188 91.7708 69.2188 90.9375C69.2188 90.4583 69.4271 90.0729 69.8438 89.7812C70.2604 89.4896 70.7396 89.3438 71.2812 89.3438C73.1979 89.3438 74.6146 89.0417 75.5312 88.4375C76.4688 87.8125 77.3646 86.6667 78.2188 85C79.0938 83.3333 79.9583 81.3958 80.8125 79.1875C81.6875 76.9583 82.5 74.8958 83.25 73C84 71.0833 84.8542 69.1354 85.8125 67.1562C87.9167 62.8229 90.4062 59.9792 93.2812 58.625C94.6771 57.9583 96.5 57.4479 98.75 57.0938C101 56.7188 102.76 56.5312 104.031 56.5312C105.323 56.5312 106.156 56.5521 106.531 56.5938C106.927 56.6146 107.323 56.6771 107.719 56.7812C108.51 56.9896 108.906 57.4271 108.906 58.0938C108.906 58.5521 108.812 58.9792 108.625 59.375C108.458 59.75 108.031 60.5104 107.344 61.6562Z" fill="#2563EB"/>
</svg>
